# xmcd
#
# Track frame offsets:
#	150
#	12416
#	23865
#	37671
#	49428
#	59557
#	74493
#	85450
#	98861
#	112363
#	122062
#	136541
#
# Disc length: 1998 seconds
#
# Revision: 1
# Processed by: cddbd v1.5.1PL0 Copyright (c) Steve Scherf et al.
# Submitted via: audiograbber 1.81.02
#
DISCID=aa07cc0c
DTITLE=Keith Whitley and Ricky Skaggs - Second Generation Bluegrass
DYEAR=1990
DGENRE=Bluegrass
TTITLE0=Don't Cheat In Our Hometown
TTITLE1=Fream Of a Miners Child
TTITLE2=Memories Of Mother
TTITLE3=Poor Monroe
TTITLE4=Daybreak In Dixie
TTITLE5=All I Ever Loved Was You
TTITLE6=My Deceitfull Heart
TTITLE7=Son Of Hobert
TTITLE8=Sea Of Regret
TTITLE9=Those Two Blue Eyes
TTITLE10=Wildwood Flower
TTITLE11=This Weary Heart You Stoled Away
EXTD=
EXTT0=
EXTT1=
EXTT2=
EXTT3=
EXTT4=
EXTT5=
EXTT6=
EXTT7=
EXTT8=
EXTT9=
EXTT10=
EXTT11=
PLAYORDER=
